<svg xmlns="http://www.w3.org/2000/svg" xmlns:xlink="http://www.w3.org/1999/xlink" xmlns:lucid="lucid" width="642" height="622"><g transform="translate(-435.1454747814605 -309)" lucid:page-tab-id="0_0"><path d="M466.15 899V358.5M466.15 898.97V900" stroke="#000" stroke-width="2" fill="none"/><path d="M466.15 343.24l4.63 14.26h-9.27z" stroke="#000" stroke-width="2"/><path d="M797.2 517.8l19.94 1.45-8.5-20.68zM800.13 477.9l19.95 1.46-8.5-20.68zM818.6 499.3l19.96 1.48-8.5-20.68zM837.1 520.72l19.94 1.47-8.5-20.7zM557.97 770.9c-.4 5.5-5.2 9.65-10.7 9.24-5.52-.4-9.65-5.2-9.25-10.7.4-5.5 5.2-9.65 10.7-9.24 5.52.4 9.65 5.2 9.25 10.7zM580.85 732.48c-.4 5.5-5.2 9.65-10.7 9.24-5.5-.4-9.65-5.2-9.24-10.7.4-5.52 5.2-9.65 10.7-9.25 5.52.4 9.66 5.2 9.25 10.7zM599.33 753.9c-.4 5.5-5.2 9.64-10.7 9.23-5.52-.4-9.65-5.2-9.25-10.7.4-5.5 5.2-9.65 10.7-9.24 5.52.4 9.65 5.2 9.25 10.7zM617.8 775.3c-.4 5.52-5.2 9.65-10.7 9.25-5.5-.4-9.64-5.2-9.24-10.7.4-5.52 5.2-9.65 10.7-9.25 5.52.4 9.65 5.2 9.25 10.7zM675.75 669.28l-2.84 6.57-7.14-.38 5.37 4.73-2.57 6.7 6.16-3.66 5.56 4.5-1.56-6.98 6-3.9-7.12-.66zM715.58 536.84l5 .37.35-4.98 9.98.74-.36 5 4.98.35-.73 10-5-.38-.36 5-9.98-.75.37-5-5-.35zM637.32 646.4l-2.84 6.57-7.15-.38 5.38 4.72-2.57 6.68 6.17-3.64 5.56 4.5-1.57-6.98 6-3.9-7.13-.67zM654.33 687.76l-2.84 6.57-7.16-.38 5.37 4.73-2.56 6.68 6.17-3.64 5.57 4.5-1.57-6.98 6-3.9-7.12-.67zM694.23 690.7l-2.85 6.56-7.15-.38 5.38 4.74-2.56 6.68 6.16-3.65 5.56 4.5-1.57-6.97 6-3.9-7.13-.67zM692.7 575.27l4.98.37.37-5 9.97.74-.36 5 4.98.36-.73 9.97-4.98-.36-.37 5-9.97-.75.37-5-5-.36zM732.6 578.2l4.97.37.37-4.98 9.97.72-.35 5 4.98.35-.73 9.98-5-.37-.35 5-9.98-.75.37-5-5-.35zM771 601.1l5 .35.37-4.98 9.97.73-.37 5 5 .36-.75 9.97-4.98-.37-.37 5-9.97-.75.36-4.97-4.98-.37z" stroke="#ef8d22" stroke-width="2" fill="#ef8d22"/><path d="M511.36 597.62l243.12 217.22" fill="none"/><path d="M511.36 597.62l2.2 1.98m2.95 2.63l4.44 3.95m2.94 2.63l4.42 3.96m2.95 2.64l4.42 3.95m2.95 2.63l4.42 3.95m2.94 2.63l4.42 3.95m2.95 2.64l4.42 3.95m2.95 2.63l4.42 3.95m2.95 2.63l4.4 3.96m2.95 2.63l4.42 3.94m2.95 2.63l4.42 3.95m2.95 2.64l4.4 3.94m2.96 2.64l4.42 3.95m2.94 2.62l4.42 3.95m2.95 2.63l4.4 3.95m2.96 2.63l4.42 3.95m2.95 2.64l4.42 3.95m2.94 2.63l4.4 3.95m2.96 2.63l4.42 3.95m2.95 2.63l4.42 3.96m2.94 2.64l4.42 3.95m2.94 2.63l4.42 3.95m2.95 2.63l4.42 3.95m2.95 2.64l4.42 3.95m2.94 2.63l4.42 3.94m2.95 2.64l4.42 3.96m2.95 2.63l4.42 3.94m2.95 2.63l4.42 3.95m2.93 2.63l4.42 3.95m2.95 2.64l4.42 3.95m2.95 2.62l4.42 3.95m2.94 2.63l4.42 3.95m2.94 2.63l4.42 3.95m2.95 2.64l2.2 1.97M511.38 597.64l-.77-.68M754.46 814.82l.77.7" stroke="#000" stroke-width="2" fill="none"/><path d="M614.87 551.7" fill="none"/><path d="M614.87 551.7" stroke="#ef8d22" stroke-width="2" fill="none"/><path d="M684.14 429.86l243.12 217.2" fill="none"/><path d="M684.14 429.86l2.2 1.97m2.96 2.63l4.42 3.95m2.95 2.65l4.42 3.95m2.93 2.63l4.42 3.95m2.95 2.63l4.42 3.96m2.95 2.63l4.42 3.94m2.94 2.64l4.42 3.95m2.94 2.63l4.42 3.95m2.95 2.64l4.42 3.95m2.94 2.62l4.42 3.95m2.94 2.64l4.43 3.96m2.94 2.63l4.42 3.94m2.94 2.63l4.42 3.95m2.95 2.63l4.43 3.95m2.94 2.63l4.42 3.95m2.94 2.64l4.42 3.95m2.95 2.63l4.43 3.95m2.95 2.63l4.42 3.95m2.94 2.63l4.42 3.95m2.95 2.65l4.43 3.95m2.95 2.63l4.42 3.95m2.95 2.63l4.42 3.96m2.94 2.63l4.43 3.94m2.95 2.64l4.42 3.95m2.95 2.63l4.42 3.95m2.95 2.64l4.42 3.95m2.94 2.62l4.42 3.95m2.95 2.64l4.42 3.95m2.95 2.64l4.42 3.94m2.94 2.63l4.43 3.95m2.95 2.63l4.42 3.95m2.95 2.63l4.42 3.95m2.95 2.64l4.4 3.95m2.95 2.63l2.2 1.97M684.16 429.87l-.76-.68M927.25 647.06l.76.68" stroke="#000" stroke-width="2" fill="none"/><path d="M510.32 877.28L914.1 379.33M510.32 877.27l-.32.4" stroke="#000" fill="none"/><path d="M923.4 367.86l-5.38 14-7.2-5.84z" stroke="#000"/><path d="M760.84 385.56h60v53.2h-60z" stroke="#000" stroke-opacity="0" stroke-width="2" fill="#fff" fill-opacity="0"/><use xlink:href="#a" transform="matrix(1,0,0,1,765.8420620079548,390.562286752594) translate(-3.981481481481481 26.444444444444443)"/><path d="M643.5 471.3h60v53.2h-60z" stroke="#000" stroke-opacity="0" stroke-width="2" fill="#fff" fill-opacity="0"/><use xlink:href="#b" transform="matrix(1,0,0,1,648.4915166466496,476.31249293414237) translate(-3.981481481481481 26.444444444444443)"/><path d="M540.88 554.4h60v53.2h-60z" stroke="#000" stroke-opacity="0" stroke-width="2" fill="#fff" fill-opacity="0"/><use xlink:href="#c" transform="matrix(1,0,0,1,545.8786324519481,559.388639993543) translate(-3.981481481481481 26.444444444444443)"/><path d="M480.88 657.46h60v53.2h-60z" stroke="#000" stroke-opacity="0" stroke-width="2" fill="#fff" fill-opacity="0"/><use xlink:href="#d" transform="matrix(1,0,0,1,485.8786324519481,662.4647870529437) translate(-3.981481481481481 26.444444444444443)"/><path d="M467.15 900h560.5M467.17 900h-1.02" stroke="#000" stroke-width="2" fill="none"/><path d="M1042.9 900l-14.26 4.64v-9.28z" stroke="#000" stroke-width="2"/><path d="M924.42 340h60v53.2h-60z" stroke="#000" stroke-opacity="0" stroke-width="2" fill="#fff" fill-opacity="0"/><use xlink:href="#e" transform="matrix(1,0,0,1,929.4241855597556,345) translate(17.006172839506174 26.444444444444443)"/><path d="M580.1 513.5l243.13 217.2" fill="none"/><path d="M580.1 513.5l2.2 1.97m2.96 2.63l4.42 3.95m2.95 2.63l4.42 3.95m2.94 2.63l4.4 3.95m2.96 2.65l4.42 3.95m2.95 2.63l4.42 3.95m2.95 2.63l4.42 3.96m2.94 2.63l4.42 3.94m2.95 2.64l4.42 3.95m2.95 2.63l4.42 3.95m2.95 2.64l4.42 3.95m2.93 2.62l4.42 3.95m2.95 2.64l4.42 3.96m2.95 2.63l4.42 3.94m2.93 2.63l4.43 3.95m2.94 2.63l4.42 3.95m2.95 2.64l4.42 3.94m2.94 2.64l4.42 3.95m2.94 2.63l4.42 3.95m2.95 2.63l4.42 3.95m2.94 2.63l4.42 3.95m2.95 2.65l4.43 3.95m2.94 2.63l4.42 3.95m2.94 2.63l4.42 3.96m2.95 2.63l4.43 3.94m2.95 2.64l4.42 3.95m2.94 2.63l4.42 3.95m2.95 2.64l4.43 3.95m2.95 2.62l4.42 3.95m2.95 2.64l4.42 3.95m2.94 2.64l4.43 3.94m2.95 2.63l4.42 3.95m2.95 2.63l4.42 3.95m2.94 2.63l2.23 1.98M580.12 513.5l-.76-.67M823.2 730.7l.77.68" stroke="#000" stroke-width="2" fill="none"/><defs><path d="M199-173c-1 36-21 56-49 65l64 94 26 5v9h-57l-66-103H75v89l35 5v9H13v-9l28-5v-208l-31-4v-10c80 4 190-20 189 63zM75-119c50 2 89-1 89-51 0-49-39-52-89-50v101" id="f"/><path d="M32-163c41-10 102-14 102 39v112c8 3 24-2 21 12h-45l-4-17C83 13 3 13 13-46c-2-50 45-50 92-51 4-36-5-70-42-56-6 2-12 4-16 6-4 7 0 23-15 20v-36zM42-47c0 41 41 33 63 22v-59c-34 1-63-1-63 37" id="g"/><path d="M125-118c4-37-41-34-68-26v132l23 4v8H8C5-13 21-9 28-12v-141c-7-3-23 1-20-12h47l2 13c31-23 98-29 98 31v109c7 3 23-1 20 12h-72v-8l22-4v-106" id="h"/><path d="M60-80l68-73c-7-3-20 0-17-12h58c3 13-13 9-20 12l-47 48 60 93c7 3 21-1 18 12h-68c-3-12 9-9 15-12L82-83 60-60v48c7 3 21-1 18 12H10v-8l21-4v-226l-24-4v-8h53v170" id="i"/><path d="M110-14l48 5v9H32v-9l48-5v-192l-48 17v-10l69-39h9v224" id="j"/><g id="a"><use transform="matrix(0.06172839506172839,0,0,0.06172839506172839,0,0)" xlink:href="#f"/><use transform="matrix(0.06172839506172839,0,0,0.06172839506172839,14.814814814814813,0)" xlink:href="#g"/><use transform="matrix(0.06172839506172839,0,0,0.06172839506172839,24.629629629629626,0)" xlink:href="#h"/><use transform="matrix(0.06172839506172839,0,0,0.06172839506172839,35.74074074074073,0)" xlink:href="#i"/><use transform="matrix(0.06172839506172839,0,0,0.06172839506172839,46.85185185185185,0)" xlink:href="#j"/></g><path d="M24-231c66-21 156 2 128 81C132-92 78-66 39-27h121V0H16v-26l59-54c26-25 47-47 47-97 0-48-47-57-81-37l-6 29H24v-46" id="k"/><g id="b"><use transform="matrix(0.06172839506172839,0,0,0.06172839506172839,0,0)" xlink:href="#f"/><use transform="matrix(0.06172839506172839,0,0,0.06172839506172839,14.814814814814813,0)" xlink:href="#g"/><use transform="matrix(0.06172839506172839,0,0,0.06172839506172839,24.629629629629626,0)" xlink:href="#h"/><use transform="matrix(0.06172839506172839,0,0,0.06172839506172839,35.74074074074073,0)" xlink:href="#i"/><use transform="matrix(0.06172839506172839,0,0,0.06172839506172839,46.85185185185185,0)" xlink:href="#k"/></g><path d="M104-123c39 3 61 21 62 59C167 7 83 12 19-4l-2-50h12c2 29 16 43 51 43 38 0 54-19 54-55 2-43-34-49-75-50v-14c37 0 64-7 64-48 0-47-47-56-81-36l-6 29H24v-46c51-13 135-13 131 51-2 34-20 52-51 57" id="l"/><g id="c"><use transform="matrix(0.06172839506172839,0,0,0.06172839506172839,0,0)" xlink:href="#f"/><use transform="matrix(0.06172839506172839,0,0,0.06172839506172839,14.814814814814813,0)" xlink:href="#g"/><use transform="matrix(0.06172839506172839,0,0,0.06172839506172839,24.629629629629626,0)" xlink:href="#h"/><use transform="matrix(0.06172839506172839,0,0,0.06172839506172839,35.74074074074073,0)" xlink:href="#i"/><use transform="matrix(0.06172839506172839,0,0,0.06172839506172839,46.85185185185185,0)" xlink:href="#l"/></g><path d="M142-52V0h-30v-52H7v-23l115-162h20v160h32v25h-32zm-30-25l-1-119L27-77h85" id="m"/><g id="d"><use transform="matrix(0.06172839506172839,0,0,0.06172839506172839,0,0)" xlink:href="#f"/><use transform="matrix(0.06172839506172839,0,0,0.06172839506172839,14.814814814814813,0)" xlink:href="#g"/><use transform="matrix(0.06172839506172839,0,0,0.06172839506172839,24.629629629629626,0)" xlink:href="#h"/><use transform="matrix(0.06172839506172839,0,0,0.06172839506172839,35.74074074074073,0)" xlink:href="#i"/><use transform="matrix(0.06172839506172839,0,0,0.06172839506172839,46.85185185185185,0)" xlink:href="#m"/></g><path d="M240-154L185 4h-14l-41-109L90 4H77L20-153c-7-3-23 1-20-12h79v8l-27 4L91-41l40-108h14l40 109 38-113-28-4v-8h63v8" id="n"/><use transform="matrix(0.06172839506172839,0,0,0.06172839506172839,0,0)" xlink:href="#n" id="e"/></defs></g></svg>