<svg xmlns="http://www.w3.org/2000/svg" xmlns:xlink="http://www.w3.org/1999/xlink" xmlns:lucid="lucid" width="643" height="615.8"><g transform="translate(-568 -169)" lucid:page-tab-id="0_0"><path d="M880 759V218.5M880 758.97V760" stroke="#000" stroke-width="2" fill="none"/><path d="M880 203.24l4.64 14.26h-9.28z" stroke="#000" stroke-width="2"/><path d="M601 476.3h560.5M601.03 476.3H600" stroke="#000" stroke-width="2" fill="none"/><path d="M1176.76 476.3l-14.26 4.64v-9.27z" stroke="#000" stroke-width="2"/><path d="M1000 281.3h5v-5h10v5h5v10h-5v5h-10v-5h-5zM960 301.3h5v-5h10v5h5v10h-5v5h-10v-5h-5zM980 341.3h5v-5h10v5h5v10h-5v5h-10v-5h-5zM1000 402.8h5v-5h10v5h5v10h-5v5h-10v-5h-5zM1040 359.96h5v-5h10v5h5v10h-5v5h-10v-5h-5zM920 359.96h5v-5h10v5h5v10h-5v5h-10v-5h-5zM920 281.3h5v-5h10v5h5v10h-5v5h-10v-5h-5zM900 320.63h5v-5h10v5h5v10h-5v5h-10v-5h-5zM960 382.8h5v-5h10v5h5v10h-5v5h-10v-5h-5zM840 281.3h5v-5h10v5h5v10h-5v5h-10v-5h-5zM820 379.96h5v-5h10v5h5v10h-5v5h-10v-5h-5zM1020 521.3h5v-5h10v5h5v10h-5v5h-10v-5h-5zM1060 419.85h5v-5h10v5h5v10h-5v5h-10v-5h-5z" stroke="#000" stroke-width="2" fill="#fff"/><path d="M780 561.3h5v-5h10v5h5v10h-5v5h-10v-5h-5zM840 567.67h5v-5h10v5h5v10h-5v5h-10v-5h-5zM740 570.55h5v-5h10v5h5v10h-5v5h-10v-5h-5zM700 521.3h5v-5h10v5h5v10h-5v5h-10v-5h-5zM700 587.67h5v-5h10v5h5v10h-5v5h-10v-5h-5zM760 621.3h5v-5h10v5h5v10h-5v5h-10v-5h-5zM840 701.3h5v-5h10v5h5v10h-5v5h-10v-5h-5zM780 671.8h5v-5h10v5h5v10h-5v5h-10v-5h-5zM840 641.3h5v-5h10v5h5v10h-5v5h-10v-5h-5zM740 671.3h5v-5h10v5h5v10h-5v5h-10v-5h-5zM920 701.47h5v-5h10v5h5v10h-5v5h-10v-5h-5z" stroke="#ef8d22" stroke-width="2" fill="#ef8d22"/><path d="M655.76 399.86l323.86 279.8" fill="none"/><path d="M655.76 399.86l1.13.97m1.5 1.3l2.26 1.96m1.5 1.3l2.27 1.94m1.5 1.3l2.26 1.96m1.5 1.3l2.26 1.95m1.5 1.3l2.26 1.95m1.5 1.3l2.27 1.96m1.5 1.3l2.25 1.95m1.5 1.3l2.27 1.96m1.5 1.3l2.27 1.96m1.5 1.3l2.25 1.95m1.5 1.3l2.27 1.96m1.5 1.3l2.26 1.95m1.5 1.3l2.27 1.95m1.5 1.3l2.26 1.96m1.52 1.3l2.26 1.94m1.5 1.3l2.27 1.95m1.5 1.3l2.26 1.95m1.52 1.3l2.26 1.95m1.5 1.3l2.26 1.95m1.5 1.3l2.27 1.96m1.52 1.3l2.26 1.96m1.5 1.3l2.26 1.96m1.5 1.3l2.27 1.95m1.5 1.3l2.27 1.95m1.5 1.3l2.27 1.96m1.5 1.3l2.26 1.95m1.5 1.3l2.27 1.95m1.5 1.3l2.27 1.96m1.5 1.3l2.26 1.95m1.5 1.3l2.27 1.94m1.5 1.3l2.26 1.96m1.5 1.3l2.27 1.95m1.5 1.3l2.26 1.96m1.5 1.3l2.27 1.96m1.5 1.3l2.27 1.95m1.5 1.3l2.26 1.97m1.5 1.3l2.27 1.95m1.5 1.3l2.26 1.95m1.5 1.3l2.26 1.96m1.5 1.3l2.27 1.95m1.5 1.3l2.26 1.95m1.5 1.3l2.26 1.96m1.5 1.3l2.26 1.94m1.5 1.3l2.27 1.96m1.5 1.3l2.25 1.95m1.5 1.3l2.27 1.95m1.5 1.3l2.27 1.96m1.5 1.3l2.25 1.95m1.5 1.3l2.27 1.96m1.5 1.3l2.26 1.96m1.5 1.3l2.27 1.95m1.5 1.3l2.26 1.95m1.52 1.3l2.26 1.96m1.5 1.3l2.27 1.95m1.5 1.3l2.26 1.96m1.52 1.3l2.26 1.94m1.5 1.3l2.26 1.95m1.5 1.3l2.27 1.95m1.52 1.3l2.26 1.95m1.5 1.3l2.26 1.95m1.5 1.3l2.27 1.96m1.5 1.3l2.27 1.96m1.5 1.3l2.27 1.96m1.5 1.3l2.26 1.95m1.5 1.3l2.27 1.95m1.5 1.3l2.27 1.96m1.5 1.3l2.26 1.95m1.5 1.3l2.27 1.95m1.5 1.3l2.26 1.96m1.5 1.3l2.27 1.95m1.5 1.3l2.26 1.94m1.5 1.3l2.27 1.96m1.5 1.3l2.27 1.95m1.5 1.3l2.26 1.96m1.5 1.3l2.27 1.96m1.5 1.3l2.26 1.95m1.5 1.3l2.26 1.97m1.5 1.3l2.27 1.95m1.5 1.3l2.26 1.95m1.5 1.3l2.26 1.96m1.5 1.3l2.26 1.95m1.5 1.3l2.27 1.95m1.5 1.3l2.25 1.96m1.5 1.3l2.27 1.94m1.5 1.3l2.27 1.96m1.5 1.3l1.12.97M655.77 399.87l-.38-.34M979.6 679.66l.4.34" stroke="#000" fill="none"/><path d="M740.38 305.96l339.24 293.7" fill="none"/><path d="M740.38 305.96l1.13.98m1.52 1.3l2.26 1.96m1.5 1.3l2.27 1.96m1.5 1.3l2.27 1.97m1.5 1.3l2.27 1.96m1.5 1.3l2.26 1.95m1.5 1.3l2.27 1.97m1.5 1.3l2.26 1.96m1.5 1.3l2.26 1.96m1.5 1.3l2.27 1.97m1.5 1.3l2.27 1.97m1.5 1.3l2.27 1.96m1.5 1.3l2.27 1.97m1.5 1.3l2.27 1.96m1.52 1.3l2.26 1.96m1.5 1.3l2.27 1.97m1.5 1.3l2.27 1.95m1.5 1.3l2.27 1.97m1.5 1.3l2.26 1.96m1.5 1.3l2.27 1.96m1.5 1.3l2.27 1.97m1.5 1.3l2.27 1.97m1.5 1.3l2.27 1.96m1.5 1.3l2.26 1.97m1.5 1.3l2.27 1.96m1.5 1.3l2.27 1.96m1.5 1.3l2.27 1.97m1.52 1.3l2.26 1.95m1.5 1.3l2.27 1.96m1.5 1.32l2.27 1.96m1.5 1.3l2.27 1.96m1.5 1.3l2.26 1.96m1.5 1.3l2.27 1.97m1.5 1.3l2.27 1.96m1.5 1.3l2.27 1.97m1.5 1.3l2.27 1.96m1.5 1.3l2.27 1.96m1.5 1.3l2.28 1.97m1.5 1.3l2.27 1.95m1.5 1.3l2.26 1.96m1.52 1.32l2.26 1.96m1.5 1.3l2.27 1.96m1.5 1.3l2.27 1.96m1.5 1.3l2.27 1.97m1.5 1.3l2.26 1.96m1.5 1.3l2.27 1.96m1.5 1.3l2.27 1.96m1.5 1.3l2.27 1.96m1.5 1.3l2.27 1.96m1.5 1.3l2.27 1.97m1.52 1.3l2.26 1.96m1.5 1.32l2.27 1.95m1.5 1.3l2.27 1.97m1.5 1.3l2.27 1.96m1.5 1.3l2.26 1.97m1.5 1.3l2.26 1.96m1.5 1.3l2.27 1.96m1.5 1.3l2.26 1.96m1.5 1.3l2.27 1.96m1.5 1.3l2.27 1.96m1.5 1.3l2.27 1.97m1.5 1.3l2.27 1.96m1.5 1.32l2.27 1.95m1.52 1.3l2.26 1.97m1.5 1.3l2.27 1.96m1.5 1.3l2.27 1.96m1.5 1.3l2.27 1.97m1.5 1.3l2.26 1.96m1.5 1.3l2.27 1.95m1.5 1.3l2.27 1.97m1.5 1.3l2.27 1.96m1.5 1.3l2.26 1.97m1.5 1.3l2.27 1.96m1.5 1.3l2.27 1.97m1.5 1.3l2.27 1.97m1.5 1.3l2.27 1.96m1.52 1.3l2.26 1.96m1.5 1.3l2.27 1.97m1.5 1.3l2.27 1.96m1.5 1.3l2.27 1.95m1.5 1.3l2.26 1.97m1.5 1.3l2.27 1.96m1.5 1.3l2.27 1.96m1.5 1.3l2.27 1.97m1.5 1.3l2.27 1.97m1.5 1.3l2.27 1.96m1.5 1.3l2.28 1.97m1.5 1.3l2.26 1.96m1.5 1.3l2.27 1.96m1.52 1.3l2.26 1.97m1.5 1.3l1.14.97M740.4 305.96l-.4-.33M1079.6 599.66l.4.34M700.38 323l343.86 300.7M700.4 323.02l-.4-.34M1044.23 623.7l.38.33" stroke="#000" fill="none"/><path d="M1100 696.6h5v-5h10v5h5v10h-5v5h-10v-5h-5z" stroke="#000" stroke-width="2" fill="#fff"/><path d="M1120 675h60v53.2h-60z" stroke="#000" stroke-opacity="0" stroke-width="2" fill="#fff" fill-opacity="0"/><use xlink:href="#a" transform="matrix(1,0,0,1,1125,679.9983958135158) translate(19.444444444444443 26.444444444444443)"/><path d="M680.34 699.63l398.58-434.36M680.35 699.62l-.35.38" stroke="#000" fill="none"/><path d="M1088.9 254.4l-6.22 13.64-6.83-6.27z" stroke="#000"/><path d="M1060 200h60v53.2h-60z" stroke="#000" stroke-opacity="0" stroke-width="2" fill="#fff" fill-opacity="0"/><use xlink:href="#b" transform="matrix(1,0,0,1,1065,205) translate(-2.6543209876543195 26.444444444444443)"/><path d="M1080 277.36h60v63.34h-60z" stroke="#000" stroke-opacity="0" stroke-width="2" fill="#fff" fill-opacity="0"/><use xlink:href="#c" transform="matrix(1,0,0,1,1085,282.3625920553545) translate(-10.771604938271608 18.111111111111114)"/><use xlink:href="#d" transform="matrix(1,0,0,1,1085,282.3625920553545) translate(-12.592592592592595 44.777777777777786)"/><path d="M1100 729.97h5v-5h10v5h5v10h-5v5h-10v-5h-5z" stroke="#ef8d22" stroke-width="2" fill="#ef8d22"/><path d="M1120 711.6h60v53.2h-60z" stroke="#000" stroke-opacity="0" stroke-width="2" fill="#fff" fill-opacity="0"/><use xlink:href="#e" transform="matrix(1,0,0,1,1125,716.5983958135158) translate(19.444444444444443 26.444444444444443)"/><path d="M600 594.64h60v63.33h-60z" stroke="#000" stroke-opacity="0" stroke-width="2" fill="#fff" fill-opacity="0"/><use xlink:href="#f" transform="matrix(1,0,0,1,605,599.6354241691573) translate(-15 18.111111111111114)"/><use xlink:href="#d" transform="matrix(1,0,0,1,605,599.6354241691573) translate(-12.592592592592595 44.777777777777786)"/><path d="M1080 414.85h60v53.2h-60z" stroke="#000" stroke-opacity="0" stroke-width="2" fill="#fff" fill-opacity="0"/><use xlink:href="#g" transform="matrix(1,0,0,1,1085,419.84847562801866) translate(2.4382716049382687 26.444444444444443)"/><path d="M1060 344.6h60v53.2h-60z" stroke="#000" stroke-opacity="0" stroke-width="2" fill="#fff" fill-opacity="0"/><use xlink:href="#h" transform="matrix(1,0,0,1,1065,349.5852127633195) translate(2.4382716049382687 26.444444444444443)"/><path d="M800 224.16h60v53.2h-60z" stroke="#000" stroke-opacity="0" stroke-width="2" fill="#fff" fill-opacity="0"/><use xlink:href="#i" transform="matrix(1,0,0,1,805,229.16259205535454) translate(2.4382716049382687 26.444444444444443)"/><path d="M840 516.3h60v53.2h-60z" stroke="#000" stroke-opacity="0" stroke-width="2" fill="#fff" fill-opacity="0"/><use xlink:href="#j" transform="matrix(1,0,0,1,845,521.3020908358241) translate(2.4382716049382687 26.444444444444443)"/><path d="M660 541.44h60v53.2h-60z" stroke="#000" stroke-opacity="0" stroke-width="2" fill="#fff" fill-opacity="0"/><use xlink:href="#k" transform="matrix(1,0,0,1,665,546.4354241691573) translate(2.4382716049382687 26.444444444444443)"/><path d="M780 679.7h60v53.2h-60z" stroke="#000" stroke-opacity="0" stroke-width="2" fill="#fff" fill-opacity="0"/><g><use xlink:href="#l" transform="matrix(1,0,0,1,785,684.702090835824) translate(2.4382716049382687 26.444444444444443)"/></g><defs><path d="M110-14l48 5v9H32v-9l48-5v-192l-48 17v-10l69-39h9v224" id="m"/><use transform="matrix(0.06172839506172839,0,0,0.06172839506172839,0,0)" xlink:href="#m" id="a"/><path d="M103-236c-39-15-35 32-34 71h44v15H69v136l35 6v8H15v-8l25-6v-136H11v-9l29-7c-6-59 23-100 80-84v36c-15 2-12-14-17-22" id="n"/><path d="M108-235c-52 28-62 95-58 178 3 56 21 97 58 119v15C7 49-17-153 67-223c12-10 25-19 41-27v15" id="o"/><path d="M156-12c7 3 23-1 20 12h-75v-8l22-4-38-58-45 58 23 4v8H3v-8l19-3 55-71-48-71c-7-3-23 1-20-12h75v8l-22 4 32 48 37-48-23-4v-8h59v8l-19 3-46 60" id="p"/><path d="M50-169c12 0 21 9 21 21 0 13-9 22-21 22-13 0-22-9-22-22 0-12 9-21 22-21zM47-37c42 4 24 74-3 81-7 4-15 8-25 11V42c22-4 44-32 19-42-18-7-14-39 9-37" id="q"/><path d="M240-154L185 4h-14l-41-109L90 4H77L20-153c-7-3-23 1-20-12h79v8l-27 4L91-41l40-108h14l40 109 38-113-28-4v-8h63v8" id="r"/><path d="M12-250C113-222 137-19 52 49 40 59 28 69 12 77V62C56 37 70-16 70-87c0-70-13-123-58-148v-15" id="s"/><g id="b"><use transform="matrix(0.06172839506172839,0,0,0.06172839506172839,0,0)" xlink:href="#n"/><use transform="matrix(0.06172839506172839,0,0,0.06172839506172839,7.345679012345679,0)" xlink:href="#o"/><use transform="matrix(0.06172839506172839,0,0,0.06172839506172839,14.691358024691358,0)" xlink:href="#p"/><use transform="matrix(0.06172839506172839,0,0,0.06172839506172839,25.80246913580247,0)" xlink:href="#q"/><use transform="matrix(0.06172839506172839,0,0,0.06172839506172839,31.975308641975307,0)" xlink:href="#r"/><use transform="matrix(0.06172839506172839,0,0,0.06172839506172839,47.96296296296296,0)" xlink:href="#s"/></g><path d="M75-108c48 3 76-12 76-58s-28-57-76-54v112zm111-58c-1 60-46 78-111 74v78l37 5v9H13v-9l28-5v-208l-31-4v-10c81 1 178-14 176 70" id="t"/><path d="M90-170c52 0 76 32 76 87 0 54-24 87-77 87-51 0-75-34-75-87 0-54 24-87 76-87zM89-10c39 0 46-35 46-73 0-39-7-73-46-73-39 1-44 34-44 73s6 72 44 73" id="u"/><path d="M41-130c7 48 86 23 86 84 0 56-69 57-112 41v-40c20 0 9 29 31 31 35 19 77-26 41-50-27-18-72-13-72-59 0-50 58-52 100-41v36c-19 1-8-25-28-25-21-7-50-1-46 23" id="v"/><path d="M47-200c-23 0-25-39 0-38 13 0 18 7 20 19-1 11-8 19-20 19zM65-12l28 4v8H8v-8l28-4v-141l-24-4v-8h53v153" id="w"/><path d="M54-38c-1 25 24 26 44 20v12C71 10 25 9 25-35v-115H4c-2-14 14-10 21-15l18-38h11v38h38v15H54v112" id="x"/><path d="M164-154L98 4H85L17-153c-7-3-20 0-17-12h77v8l-26 4L99-38l46-115-26-4v-8h61v8" id="y"/><path d="M84-170c49 0 66 33 63 87H46c-8 60 38 80 95 63v10C128-2 108 4 88 4 34 4 14-29 14-84c-1-54 22-86 70-86zm33 73c12-57-57-82-69-24-1 7-2 15-2 24h71" id="z"/><g id="c"><use transform="matrix(0.06172839506172839,0,0,0.06172839506172839,0,0)" xlink:href="#t"/><use transform="matrix(0.06172839506172839,0,0,0.06172839506172839,12.345679012345679,0)" xlink:href="#u"/><use transform="matrix(0.06172839506172839,0,0,0.06172839506172839,23.45679012345679,0)" xlink:href="#v"/><use transform="matrix(0.06172839506172839,0,0,0.06172839506172839,32.098765432098766,0)" xlink:href="#w"/><use transform="matrix(0.06172839506172839,0,0,0.06172839506172839,38.27160493827161,0)" xlink:href="#x"/><use transform="matrix(0.06172839506172839,0,0,0.06172839506172839,44.44444444444445,0)" xlink:href="#w"/><use transform="matrix(0.06172839506172839,0,0,0.06172839506172839,50.61728395061729,0)" xlink:href="#y"/><use transform="matrix(0.06172839506172839,0,0,0.06172839506172839,61.728395061728406,0)" xlink:href="#z"/></g><path d="M178-68c0 79-95 82-154 59v-54h12c1 35 22 52 60 52 50 0 69-58 33-82-39-24-105-21-105-85 0-67 86-66 142-53v49h-12l-6-29c-31-27-121-7-89 42 28 43 119 24 119 101" id="A"/><path d="M32-163c41-10 102-14 102 39v112c8 3 24-2 21 12h-45l-4-17C83 13 3 13 13-46c-2-50 45-50 92-51 4-36-5-70-42-56-6 2-12 4-16 6-4 7 0 23-15 20v-36zM42-47c0 41 41 33 63 22v-59c-34 1-63-1-63 37" id="B"/><path d="M126-118c4-37-42-32-68-25v131l24 4v8H8C5-13 21-9 28-12v-141c-7-3-23 1-20-12h48l1 13c22-15 77-30 92 2 32-22 104-36 104 29v109c8 3 24-2 21 12h-75v-8l25-4v-106c3-39-45-31-72-24 7 37 1 88 3 130l25 4v8h-78v-8l24-4v-106" id="C"/><path d="M166-85c3 67-44 102-111 85l1 64 29 4v9H6v-9l21-4v-217c-7-3-22 1-19-12h46l1 9c11-8 26-14 45-14 47 2 64 36 66 85zM56-13c53 14 83-14 78-72 7-53-33-79-78-60v132" id="D"/><path d="M65-12l28 4v8H7v-8l28-4v-226l-28-4v-8h58v238" id="E"/><g id="d"><use transform="matrix(0.06172839506172839,0,0,0.06172839506172839,0,0)" xlink:href="#A"/><use transform="matrix(0.06172839506172839,0,0,0.06172839506172839,12.345679012345679,0)" xlink:href="#B"/><use transform="matrix(0.06172839506172839,0,0,0.06172839506172839,22.160493827160494,0)" xlink:href="#C"/><use transform="matrix(0.06172839506172839,0,0,0.06172839506172839,39.44444444444444,0)" xlink:href="#D"/><use transform="matrix(0.06172839506172839,0,0,0.06172839506172839,50.55555555555556,0)" xlink:href="#E"/><use transform="matrix(0.06172839506172839,0,0,0.06172839506172839,56.7283950617284,0)" xlink:href="#z"/><use transform="matrix(0.06172839506172839,0,0,0.06172839506172839,66.54320987654322,0)" xlink:href="#v"/></g><path d="M90-239c59 0 76 52 76 120S152 4 89 4C31 4 14-51 14-119c0-67 17-120 76-120zM89-10c45-6 45-58 45-109 0-50 0-101-45-106-45 4-43 57-43 106 0 50-2 104 43 109" id="F"/><use transform="matrix(0.06172839506172839,0,0,0.06172839506172839,0,0)" xlink:href="#F" id="e"/><path d="M203-222l-32-4v-10h81v10l-31 4V0h-17L59-212v198l32 5v9H10v-9l31-5v-208l-31-4v-10h72L203-61v-161" id="G"/><path d="M141-152c28 39 5 97-54 97-9 0-20-2-27-3L49-35c29 22 130-14 124 52-4 45-38 57-88 61C21 83-8 26 45-2 33-6 22-15 21-31l28-31c-19-9-28-26-28-51-2-51 53-65 100-52l38-20 7 8zM85 64c35 0 61-11 61-42 0-35-57-17-89-21-9 8-16 19-17 34 0 25 19 29 45 29zM52-113c1 26 7 46 35 44 28-1 34-16 35-44 0-26-6-43-34-43s-36 17-36 43" id="H"/><g id="f"><use transform="matrix(0.06172839506172839,0,0,0.06172839506172839,0,0)" xlink:href="#G"/><use transform="matrix(0.06172839506172839,0,0,0.06172839506172839,15.987654320987653,0)" xlink:href="#z"/><use transform="matrix(0.06172839506172839,0,0,0.06172839506172839,25.80246913580247,0)" xlink:href="#H"/><use transform="matrix(0.06172839506172839,0,0,0.06172839506172839,36.91358024691358,0)" xlink:href="#B"/><use transform="matrix(0.06172839506172839,0,0,0.06172839506172839,46.7283950617284,0)" xlink:href="#x"/><use transform="matrix(0.06172839506172839,0,0,0.06172839506172839,52.90123456790124,0)" xlink:href="#w"/><use transform="matrix(0.06172839506172839,0,0,0.06172839506172839,59.07407407407408,0)" xlink:href="#y"/><use transform="matrix(0.06172839506172839,0,0,0.06172839506172839,70.18518518518519,0)" xlink:href="#z"/></g><path d="M13-71v-27h94v27H13" id="I"/><path d="M24-231c66-21 156 2 128 81C132-92 78-66 39-27h121V0H16v-26l59-54c26-25 47-47 47-97 0-48-47-57-81-37l-6 29H24v-46" id="J"/><g id="g"><use transform="matrix(0.06172839506172839,0,0,0.06172839506172839,0,0)" xlink:href="#p"/><use transform="matrix(0.043209876543209874,0,0,0.043209876543209874,11.11111111111111,3.1111111111111107)" xlink:href="#m"/><use transform="matrix(0.06172839506172839,0,0,0.06172839506172839,18.88888888888889,0)" xlink:href="#I"/><use transform="matrix(0.06172839506172839,0,0,0.06172839506172839,26.23456790123457,0)" xlink:href="#p"/><use transform="matrix(0.043209876543209874,0,0,0.043209876543209874,37.345679012345684,3.1111111111111107)" xlink:href="#J"/></g><path d="M104-123c39 3 61 21 62 59C167 7 83 12 19-4l-2-50h12c2 29 16 43 51 43 38 0 54-19 54-55 2-43-34-49-75-50v-14c37 0 64-7 64-48 0-47-47-56-81-36l-6 29H24v-46c51-13 135-13 131 51-2 34-20 52-51 57" id="K"/><g id="h"><use transform="matrix(0.06172839506172839,0,0,0.06172839506172839,0,0)" xlink:href="#p"/><use transform="matrix(0.043209876543209874,0,0,0.043209876543209874,11.11111111111111,3.1111111111111107)" xlink:href="#J"/><use transform="matrix(0.06172839506172839,0,0,0.06172839506172839,18.88888888888889,0)" xlink:href="#I"/><use transform="matrix(0.06172839506172839,0,0,0.06172839506172839,26.23456790123457,0)" xlink:href="#p"/><use transform="matrix(0.043209876543209874,0,0,0.043209876543209874,37.345679012345684,3.1111111111111107)" xlink:href="#K"/></g><g id="i"><use transform="matrix(0.06172839506172839,0,0,0.06172839506172839,0,0)" xlink:href="#p"/><use transform="matrix(0.043209876543209874,0,0,0.043209876543209874,11.11111111111111,3.1111111111111107)" xlink:href="#m"/><use transform="matrix(0.06172839506172839,0,0,0.06172839506172839,18.88888888888889,0)" xlink:href="#I"/><use transform="matrix(0.06172839506172839,0,0,0.06172839506172839,26.23456790123457,0)" xlink:href="#p"/><use transform="matrix(0.043209876543209874,0,0,0.043209876543209874,37.345679012345684,3.1111111111111107)" xlink:href="#K"/></g><g id="j"><use transform="matrix(0.06172839506172839,0,0,0.06172839506172839,0,0)" xlink:href="#p"/><use transform="matrix(0.043209876543209874,0,0,0.043209876543209874,11.11111111111111,3.1111111111111107)" xlink:href="#J"/><use transform="matrix(0.06172839506172839,0,0,0.06172839506172839,18.88888888888889,0)" xlink:href="#I"/><use transform="matrix(0.06172839506172839,0,0,0.06172839506172839,26.23456790123457,0)" xlink:href="#p"/><use transform="matrix(0.043209876543209874,0,0,0.043209876543209874,37.345679012345684,3.1111111111111107)" xlink:href="#m"/></g><g id="k"><use transform="matrix(0.06172839506172839,0,0,0.06172839506172839,0,0)" xlink:href="#p"/><use transform="matrix(0.043209876543209874,0,0,0.043209876543209874,11.11111111111111,3.1111111111111107)" xlink:href="#K"/><use transform="matrix(0.06172839506172839,0,0,0.06172839506172839,18.88888888888889,0)" xlink:href="#I"/><use transform="matrix(0.06172839506172839,0,0,0.06172839506172839,26.23456790123457,0)" xlink:href="#p"/><use transform="matrix(0.043209876543209874,0,0,0.043209876543209874,37.345679012345684,3.1111111111111107)" xlink:href="#m"/></g><g id="l"><use transform="matrix(0.06172839506172839,0,0,0.06172839506172839,0,0)" xlink:href="#p"/><use transform="matrix(0.043209876543209874,0,0,0.043209876543209874,11.11111111111111,3.1111111111111107)" xlink:href="#K"/><use transform="matrix(0.06172839506172839,0,0,0.06172839506172839,18.88888888888889,0)" xlink:href="#I"/><use transform="matrix(0.06172839506172839,0,0,0.06172839506172839,26.23456790123457,0)" xlink:href="#p"/><use transform="matrix(0.043209876543209874,0,0,0.043209876543209874,37.345679012345684,3.1111111111111107)" xlink:href="#J"/></g></defs></g></svg>