<svg xmlns="http://www.w3.org/2000/svg" xmlns:xlink="http://www.w3.org/1999/xlink" xmlns:lucid="lucid" width="657.15" height="629.9"><g transform="translate(-113.85452521853955 -249)" lucid:page-tab-id="0_0"><path d="M160 839V298.5M160 838.97V840" stroke="#000" stroke-width="2" fill="none"/><path d="M160 283.24l4.64 14.26h-9.28z" stroke="#000" stroke-width="2"/><path d="M578.36 357.12c51.5 42.6 14.6 172.2-82.4 289.45-97 117.27-217.38 177.8-268.87 135.2-51.5-42.6-14.6-172.18 82.4-289.44 97-117.27 217.37-177.8 268.86-135.2z" stroke="#ef8d22" stroke-width="2" fill="#fff"/><path d="M491.05 457.8l19.95 1.45-8.5-20.68zM494 417.9l19.94 1.46-8.5-20.68zM512.47 439.3l19.94 1.48-8.5-20.68zM530.94 460.72l19.95 1.47-8.5-20.7zM251.82 710.9c-.4 5.5-5.2 9.65-10.7 9.24-5.5-.4-9.65-5.2-9.24-10.7.4-5.5 5.2-9.65 10.7-9.24 5.5.4 9.65 5.2 9.24 10.7zM274.7 672.48c-.4 5.5-5.2 9.65-10.7 9.24-5.5-.4-9.65-5.2-9.24-10.7.4-5.52 5.2-9.65 10.7-9.25 5.52.4 9.65 5.2 9.25 10.7zM293.18 693.9c-.4 5.5-5.2 9.64-10.7 9.23-5.5-.4-9.65-5.2-9.24-10.7.4-5.5 5.2-9.65 10.7-9.24 5.5.4 9.65 5.2 9.24 10.7zM311.66 715.3c-.4 5.52-5.2 9.65-10.7 9.25-5.5-.4-9.65-5.2-9.24-10.7.4-5.52 5.2-9.65 10.7-9.25 5.5.4 9.65 5.2 9.24 10.7zM369.6 609.28l-2.84 6.57-7.15-.38 5.38 4.73-2.57 6.7 6.17-3.66 5.57 4.5-1.57-6.98 6-3.9-7.12-.66zM409.43 476.84l5 .37.36-4.98 9.96.74-.37 5 4.98.35-.74 10-4.98-.38-.37 5-9.98-.75.37-5-5-.35zM331.18 586.4l-2.84 6.57-7.15-.38 5.36 4.72L324 604l6.15-3.64 5.56 4.5-1.55-6.98 6-3.9-7.12-.67zM348.2 627.76l-2.85 6.57-7.15-.38 5.37 4.73-2.57 6.68 6.16-3.64 5.56 4.5-1.56-6.98 6-3.9-7.12-.67zM388.08 630.7l-2.84 6.56-7.15-.38 5.36 4.74-2.57 6.68 6.15-3.65 5.56 4.5-1.55-6.97 6-3.9-7.12-.67zM386.55 515.27l5 .37.35-5 9.98.74-.37 5 5 .36-.74 9.97-4.98-.36-.37 5-9.96-.75.36-5-4.98-.36zM426.44 518.2l5 .37.36-4.98 9.97.72-.37 5 5 .35-.75 9.98-4.98-.37-.37 5-9.97-.75.36-5-5-.35zM464.87 541.1l4.98.35.37-4.98 9.97.73-.37 5 4.98.36-.72 9.97-5-.37-.36 5-9.97-.75.37-4.97-5-.37z" stroke="#000" stroke-width="2" fill="#fff"/><path d="M205.2 537.62l243.14 217.22" fill="none"/><path d="M205.2 537.62l2.22 1.98m2.95 2.63l4.42 3.95m2.94 2.63l4.42 3.96m2.94 2.64l4.42 3.95m2.95 2.63l4.42 3.95m2.94 2.63l4.42 3.95m2.95 2.64l4.43 3.95m2.94 2.63l4.42 3.95m2.94 2.63l4.42 3.96m2.95 2.63l4.43 3.94m2.95 2.63l4.42 3.95m2.94 2.64l4.42 3.94m2.95 2.64l4.43 3.95m2.95 2.62l4.42 3.95m2.95 2.63l4.42 3.95m2.94 2.63l4.43 3.95m2.95 2.64l4.42 3.95m2.95 2.63l4.42 3.95m2.94 2.63l4.44 3.95m2.94 2.63l4.42 3.96m2.95 2.64l4.42 3.95m2.95 2.63l4.42 3.95m2.94 2.63l4.42 3.95m2.95 2.64l4.42 3.95m2.95 2.63l4.42 3.94m2.95 2.64l4.4 3.96m2.95 2.63l4.42 3.94m2.95 2.63l4.42 3.95m2.95 2.63l4.4 3.95m2.96 2.64l4.42 3.95m2.94 2.62l4.42 3.95m2.95 2.63l4.4 3.95m2.96 2.63l4.42 3.95m2.95 2.64l2.2 1.97M205.23 537.64l-.76-.68M448.32 754.82l.76.7" stroke="#000" stroke-width="2" fill="none"/><path d="M250.97 460.78L512.6 699.4" fill="none"/><path d="M250.97 460.78l2.24 2.05m3 2.73l4.5 4.1m2.98 2.7l4.48 4.1m3 2.73l4.48 4.08m3 2.73l4.47 4.1m3 2.73l4.5 4.1m2.98 2.7l4.48 4.1m3 2.73l4.48 4.1m3 2.72l4.47 4.1m3 2.72l4.5 4.1m2.98 2.72l4.48 4.1m3 2.7l4.47 4.1m3 2.73l4.48 4.1m3 2.72l4.48 4.1m3 2.72l4.48 4.08m3 2.72l4.47 4.1m3 2.72l4.48 4.1m3 2.72l4.48 4.1m3 2.72l4.48 4.1m3 2.7l4.47 4.1m3 2.73l4.48 4.08m3 2.73l4.48 4.1m3 2.73l4.48 4.1m3 2.7l4.47 4.1m3 2.73l4.48 4.1m3 2.72l4.48 4.1m3 2.72l4.48 4.1m3 2.7l4.47 4.1m3 2.73l4.47 4.1m3 2.72l4.48 4.1m3 2.72l4.47 4.1m3 2.7l4.48 4.1m3 2.73l4.47 4.1m3 2.72l4.48 4.1m3 2.72l4.47 4.1m3 2.72l2.24 2.04M251 460.8l-.77-.7M512.57 699.38l.75.7" stroke="#000" stroke-width="2" fill="none"/><path d="M378 369.86l243.12 217.2" fill="none"/><path d="M378 369.86l2.2 1.97m2.95 2.63l4.42 3.95m2.95 2.65l4.42 3.95m2.95 2.63l4.4 3.95m2.95 2.63l4.43 3.96m2.94 2.63l4.42 3.94m2.95 2.64l4.4 3.95m2.96 2.63l4.42 3.95m2.94 2.64l4.42 3.95m2.95 2.62l4.4 3.95m2.96 2.64l4.42 3.96m2.95 2.63l4.42 3.94m2.94 2.63l4.4 3.95m2.96 2.63l4.42 3.95m2.95 2.63l4.42 3.95m2.95 2.64l4.42 3.95m2.94 2.63l4.42 3.95m2.95 2.63l4.42 3.95m2.95 2.63l4.42 3.95m2.95 2.65l4.42 3.95m2.93 2.63l4.42 3.95m2.95 2.63l4.42 3.96m2.95 2.63l4.42 3.94m2.93 2.64l4.43 3.95m2.94 2.63l4.42 3.95m2.95 2.64l4.42 3.95m2.94 2.62l4.42 3.95m2.94 2.64l4.42 3.95m2.95 2.64l4.42 3.94m2.94 2.63l4.42 3.95m2.95 2.63l4.43 3.95m2.94 2.63l4.42 3.95m2.94 2.64l4.42 3.95m2.95 2.63l2.22 1.97M378 369.87l-.75-.68M621.1 587.06l.76.68" stroke="#000" stroke-width="2" fill="none"/><path d="M204.18 817.3l405.3-484.73M204.18 817.28l-.32.4" stroke="#000" fill="none"/><path d="M618.96 321.24l-5.6 13.92-7.1-5.95z" stroke="#000"/><path d="M621.4 814.32c0 5.52-4.46 10-10 10-5.5 0-10-4.48-10-10s4.5-10 10-10c5.54 0 10 4.48 10 10zM600 728.08h5v-5h10v5h5v10h-5v5h-10v-5h-5zM600 703.16h20l-10-20zM611.4 763.7l-2.34 6.76-7.16.15 5.7 4.33-2.06 6.86 5.87-4.1 5.9 4.1-2.08-6.87 5.7-4.32-7.15-.14z" stroke="#000" stroke-width="2" fill="#fff"/><path d="M640 666.97h60v53.2h-60z" stroke="#000" stroke-opacity="0" stroke-width="2" fill="#fff" fill-opacity="0"/><use xlink:href="#a" transform="matrix(1,0,0,1,645,671.9703051189915) translate(-0.9750000000000014 25.6)"/><path d="M640 710.5h60v53.2h-60z" stroke="#000" stroke-opacity="0" stroke-width="2" fill="#fff" fill-opacity="0"/><use xlink:href="#b" transform="matrix(1,0,0,1,645,715.4979091641759) translate(-0.9750000000000014 25.6)"/><path d="M640 751.12h60v53.2h-60z" stroke="#000" stroke-opacity="0" stroke-width="2" fill="#fff" fill-opacity="0"/><use xlink:href="#c" transform="matrix(1,0,0,1,645,756.1199531434554) translate(-0.9750000000000014 25.6)"/><path d="M640 787.72h60v53.2h-60z" stroke="#000" stroke-opacity="0" stroke-width="2" fill="#fff" fill-opacity="0"/><use xlink:href="#d" transform="matrix(1,0,0,1,645,792.7199531434554) translate(-0.9750000000000014 25.6)"/><path d="M161 840h560.5M161.03 840H160" stroke="#000" stroke-width="2" fill="none"/><path d="M736.76 840l-14.26 4.64v-9.28z" stroke="#000" stroke-width="2"/><defs><path d="M233-177c-1 41-23 64-60 70L243 0h-38l-65-103H63V0H30v-248c88 3 205-21 203 71zM63-129c60-2 137 13 137-47 0-61-80-42-137-45v92" id="e"/><path d="M141-36C126-15 110 5 73 4 37 3 15-17 15-53c-1-64 63-63 125-63 3-35-9-54-41-54-24 1-41 7-42 31l-33-3c5-37 33-52 76-52 45 0 72 20 72 64v82c-1 20 7 32 28 27v20c-31 9-61-2-59-35zM48-53c0 20 12 33 32 33 41-3 63-29 60-74-43 2-92-5-92 41" id="f"/><path d="M117-194c89-4 53 116 60 194h-32v-121c0-31-8-49-39-48C34-167 62-67 57 0H25l-1-190h30c1 10-1 24 2 32 11-22 29-35 61-36" id="g"/><path d="M143 0L79-87 56-68V0H24v-261h32v163l83-92h37l-77 82L181 0h-38" id="h"/><path d="M27 0v-27h64v-190l-56 39v-29l58-41h29v221h61V0H27" id="i"/><g id="a"><use transform="matrix(0.05,0,0,0.05,0,0)" xlink:href="#e"/><use transform="matrix(0.05,0,0,0.05,12.950000000000001,0)" xlink:href="#f"/><use transform="matrix(0.05,0,0,0.05,22.950000000000003,0)" xlink:href="#g"/><use transform="matrix(0.05,0,0,0.05,32.95,0)" xlink:href="#h"/><use transform="matrix(0.05,0,0,0.05,41.95,0)" xlink:href="#i"/></g><path d="M101-251c82-7 93 87 43 132L82-64C71-53 59-42 53-27h129V0H18c2-99 128-94 128-182 0-28-16-43-45-43s-46 15-49 41l-32-3c6-41 34-60 81-64" id="j"/><g id="b"><use transform="matrix(0.05,0,0,0.05,0,0)" xlink:href="#e"/><use transform="matrix(0.05,0,0,0.05,12.950000000000001,0)" xlink:href="#f"/><use transform="matrix(0.05,0,0,0.05,22.950000000000003,0)" xlink:href="#g"/><use transform="matrix(0.05,0,0,0.05,32.95,0)" xlink:href="#h"/><use transform="matrix(0.05,0,0,0.05,41.95,0)" xlink:href="#j"/></g><path d="M126-127c33 6 58 20 58 59 0 88-139 92-164 29-3-8-5-16-6-25l32-3c6 27 21 44 54 44 32 0 52-15 52-46 0-38-36-46-79-43v-28c39 1 72-4 72-42 0-27-17-43-46-43-28 0-47 15-49 41l-32-3c6-42 35-63 81-64 48-1 79 21 79 65 0 36-21 52-52 59" id="k"/><g id="c"><use transform="matrix(0.05,0,0,0.05,0,0)" xlink:href="#e"/><use transform="matrix(0.05,0,0,0.05,12.950000000000001,0)" xlink:href="#f"/><use transform="matrix(0.05,0,0,0.05,22.950000000000003,0)" xlink:href="#g"/><use transform="matrix(0.05,0,0,0.05,32.95,0)" xlink:href="#h"/><use transform="matrix(0.05,0,0,0.05,41.95,0)" xlink:href="#k"/></g><path d="M155-56V0h-30v-56H8v-25l114-167h33v167h35v25h-35zm-30-156c-27 46-58 90-88 131h88v-131" id="l"/><g id="d"><use transform="matrix(0.05,0,0,0.05,0,0)" xlink:href="#e"/><use transform="matrix(0.05,0,0,0.05,12.950000000000001,0)" xlink:href="#f"/><use transform="matrix(0.05,0,0,0.05,22.950000000000003,0)" xlink:href="#g"/><use transform="matrix(0.05,0,0,0.05,32.95,0)" xlink:href="#h"/><use transform="matrix(0.05,0,0,0.05,41.95,0)" xlink:href="#l"/></g></defs></g></svg>